<svg xmlns="http://www.w3.org/2000/svg" viewBox="0 0 1200 420" width="100%" height="100%">
  <defs>
    <linearGradient id="bg" x1="0%" y1="0%" x2="100%" y2="100%">
      <stop offset="0%" stop-color="#0f172a" />
      <stop offset="50%" stop-color="#1e293b" />
      <stop offset="100%" stop-color="#0f172a" />
    </linearGradient>
    <linearGradient id="primary" x1="0%" y1="0%" x2="100%" y2="0%">
      <stop offset="0%" stop-color="#10b981" />
      <stop offset="100%" stop-color="#059669" />
    </linearGradient>
    <linearGradient id="accent" x1="0%" y1="0%" x2="100%" y2="0%">
      <stop offset="0%" stop-color="#3b82f6" />
      <stop offset="100%" stop-color="#2563eb" />
    </linearGradient>
    <linearGradient id="gold" x1="0%" y1="0%" x2="100%" y2="0%">
      <stop offset="0%" stop-color="#f59e0b" />
      <stop offset="100%" stop-color="#d97706" />
    </linearGradient>
    <pattern id="grid" width="40" height="40" patternUnits="userSpaceOnUse">
      <path d="M 40 0 L 0 0 0 40" fill="none" stroke="#334155" stroke-width="1" stroke-opacity="0.3" />
    </pattern>
    <filter id="shadow" x="-20%" y="-20%" width="140%" height="140%">
      <feDropShadow dx="0" dy="10" stdDeviation="10" flood-color="#000000" flood-opacity="0.5"/>
    </filter>
    <filter id="glow" x="-30%" y="-30%" width="160%" height="160%">
      <feGaussianBlur stdDeviation="8" result="blur" />
      <feComposite in="SourceGraphic" in2="blur" operator="over" />
    </filter>
  </defs>

  <rect width="1200" height="420" fill="url(#bg)" />
  <rect width="1200" height="420" fill="url(#grid)" />

  <circle cx="1050" cy="100" r="250" fill="#10b981" opacity="0.05" filter="url(#glow)" />
  <circle cx="150" cy="300" r="200" fill="#3b82f6" opacity="0.05" filter="url(#glow)" />

  <path d="M 0,260 C 300,160 500,360 800,210 C 1000,110 1100,260 1200,160 L 1200,420 L 0,420 Z" fill="#1e293b" opacity="0.4" />
  <path d="M 0,290 C 400,190 600,390 900,230 C 1050,150 1150,290 1200,210 L 1200,420 L 0,420 Z" fill="#0f172a" opacity="0.7" />
  
  <g stroke="#3b82f6" stroke-width="1.5" stroke-opacity="0.6" fill="none">
    <line x1="900" y1="130" x2="980" y2="90" />
    <line x1="980" y1="90" x2="1060" y2="140" />
    <line x1="1060" y1="140" x2="1020" y2="220" />
    <line x1="1020" y1="220" x2="900" y2="130" />
    <line x1="980" y1="90" x2="1020" y2="220" />
  </g>
  <g fill="#10b981" stroke="#ffffff" stroke-width="2">
    <circle cx="900" cy="130" r="7" filter="url(#shadow)" />
    <circle cx="980" cy="90" r="9" filter="url(#shadow)" fill="#3b82f6" />
    <circle cx="1060" cy="140" r="7" filter="url(#shadow)" />
    <circle cx="1020" cy="220" r="10" filter="url(#shadow)" fill="#f59e0b" />
  </g>

  <g font-family="system-ui, -apple-system, 'Segoe UI', Roboto, Helvetica, Arial, sans-serif">
    
    <g transform="translate(80, 55)" filter="url(#shadow)">
      <rect x="0" y="0" width="300" height="36" rx="18" fill="#1e293b" stroke="#334155" stroke-width="1.5" />
      <circle cx="18" cy="18" r="6" fill="#10b981" />
      <text x="34" y="23" fill="#38bdf8" font-size="14" font-weight="700" letter-spacing="1">HACKATHON DCE 2026 : TEMA 2</text>
    </g>

    <text x="80" y="155" fill="#ffffff" font-size="64" font-weight="800" letter-spacing="-1" filter="url(#shadow)">TemuNiaga<tspan fill="#10b981">.</tspan></text>

    <text x="80" y="200" fill="#94a3b8" font-size="22" font-weight="500" letter-spacing="0.5">Aplikasi Dagang Koperasi Desa Merah Putih</text>
    <text x="80" y="232" fill="#cbd5e1" font-size="17" font-weight="400" opacity="0.9">Menghubungkan Petani &amp; UMKM Langsung ke Pembeli Besar B2B</text>
    <text x="80" y="258" fill="#cbd5e1" font-size="17" font-weight="400" opacity="0.9">dengan Harga Adil Berbasis Data Resmi BPS &amp; Bapanas</text>

    <g transform="translate(80, 305)" filter="url(#shadow)">
      <rect x="0" y="0" width="220" height="46" rx="8" fill="url(#primary)" />
      <text x="110" y="28" fill="#ffffff" font-size="15" font-weight="700" text-anchor="middle">Countervailing Power</text>
    </g>

    <g transform="translate(315, 305)" filter="url(#shadow)">
      <rect x="0" y="0" width="210" height="46" rx="8" fill="url(#accent)" />
      <text x="105" y="28" fill="#ffffff" font-size="15" font-weight="700" text-anchor="middle">Mesin Matching B2B</text>
    </g>

    <g transform="translate(540, 305)" filter="url(#shadow)">
      <rect x="0" y="0" width="210" height="46" rx="8" fill="url(#gold)" />
      <text x="105" y="28" fill="#ffffff" font-size="15" font-weight="700" text-anchor="middle">Ledger Transparan</text>
    </g>

    <g transform="translate(80, 385)">
      <text x="0" y="0" fill="#64748b" font-size="13" font-weight="600" letter-spacing="0.5">KEMENTERIAN KOPERASI RI x PEBS FEB UNIVERSITAS INDONESIA</text>
    </g>

    <text x="1150" y="385" fill="#64748b" font-size="12" font-weight="500" text-anchor="end">* Ilustrasi Pratinjau Konsep (Bukan UI Final)</text>
  </g>

  <g transform="translate(800, 140)" filter="url(#shadow)" font-family="system-ui, -apple-system, 'Segoe UI', Roboto, Helvetica, Arial, sans-serif">
    <rect x="0" y="0" width="360" height="220" rx="16" fill="#1e293b" stroke="#334155" stroke-width="2" />
    <rect x="20" y="20" width="320" height="35" rx="8" fill="#0f172a" />
    <text x="35" y="43" fill="#10b981" font-size="14" font-weight="700">DATA SIMKOPDES &amp; BPS</text>
    <text x="335" y="43" fill="#64748b" font-size="12" font-weight="600" text-anchor="end">Jun 2026</text>
    
    <text x="20" y="85" fill="#94a3b8" font-size="13" font-weight="500">NTP Petani Nasional</text>
    <text x="340" y="85" fill="#ffffff" font-size="16" font-weight="700" text-anchor="end">127,73</text>

    <text x="20" y="117" fill="#94a3b8" font-size="13" font-weight="500">Farmer's Share Kopi Solok</text>
    <text x="340" y="117" fill="#ef4444" font-size="16" font-weight="700" text-anchor="end">32%</text>

    <text x="20" y="149" fill="#94a3b8" font-size="13" font-weight="500">Kopdes Bertransaksi (dari 83.362)</text>
    <text x="340" y="149" fill="#fbbf24" font-size="16" font-weight="700" text-anchor="end">795</text>

    <text x="20" y="181" fill="#94a3b8" font-size="13" font-weight="500">Target Kenaikan Farmgate (kopi)</text>
    <text x="340" y="181" fill="#22c55e" font-size="16" font-weight="700" text-anchor="end">+15%</text>
  </g>
</svg>
