<svg xmlns="http://www.w3.org/2000/svg" viewBox="0 0 1000 680" width="100%" height="100%">
  <defs>
    <linearGradient id="bg" x1="0%" y1="0%" x2="100%" y2="100%">
      <stop offset="0%" stop-color="#0f172a" />
      <stop offset="100%" stop-color="#1e293b" />
    </linearGradient>
    <linearGradient id="card" x1="0%" y1="0%" x2="0%" y2="100%">
      <stop offset="0%" stop-color="#1e293b" />
      <stop offset="100%" stop-color="#0f172a" />
    </linearGradient>
    <filter id="shadow" x="-5%" y="-5%" width="110%" height="110%">
      <feDropShadow dx="0" dy="6" stdDeviation="6" flood-color="#000000" flood-opacity="0.4"/>
    </filter>
  </defs>

  <rect width="1000" height="680" fill="url(#bg)" />

  <g font-family="system-ui, -apple-system, 'Segoe UI', Roboto, sans-serif">
    <!-- TOP B2B NAVBAR -->
    <rect x="0" y="0" width="1000" height="70" fill="#0f172a" stroke="#334155" stroke-width="1" />
    <text x="30" y="43" fill="#f59e0b" font-size="24" font-weight="800">TemuNiaga B2B Portal</text>
    
    <g transform="translate(340, 20)">
      <rect x="0" y="0" width="125" height="32" rx="16" fill="#78350f" stroke="#fbbf24" stroke-width="1" />
      <text x="62.5" y="21" fill="#fde68a" font-size="13" font-weight="700" text-anchor="middle">PASANG RFQ</text>

      <text x="155" y="21" fill="#94a3b8" font-size="14" font-weight="600">Jelajahi Stok Kopdes</text>
      <text x="315" y="21" fill="#94a3b8" font-size="14" font-weight="600">Kontrak Escrow</text>
    </g>

    <rect x="790" y="18" width="180" height="34" rx="6" fill="#1e293b" stroke="#3b82f6" stroke-width="1" />
    <text x="880" y="40" fill="#38bdf8" font-size="13" font-weight="700" text-anchor="middle">PT INDOFOOD CBP</text>

    <!-- MAIN PORTAL CONTAINER -->
    <g transform="translate(30, 100)">
      
      <!-- LEFT COLUMN: RFQ FORM SIMULATION -->
      <g transform="translate(0, 0)">
        <rect x="0" y="0" width="450" height="510" rx="16" fill="url(#card)" stroke="#334155" stroke-width="1.5" filter="url(#shadow)" />
        <rect x="0" y="0" width="450" height="60" rx="16" fill="#78350f" />
        <text x="25" y="37" fill="#ffffff" font-size="18" font-weight="700">Formulir Pengajuan RFQ Pembeli Besar</text>

        <g transform="translate(25, 80)">
          <!-- Field 1 -->
          <text x="0" y="20" fill="#94a3b8" font-size="13" font-weight="700">KOMODITAS DIBUTUHKAN</text>
          <rect x="0" y="30" width="400" height="40" rx="6" fill="#0f172a" stroke="#475569" stroke-width="1" />
          <text x="15" y="55" fill="#ffffff" font-size="15" font-weight="600">Singkong Mentah (Pengolahan Tepung/Keripik)</text>

          <!-- Field 2 -->
          <text x="0" y="95" fill="#94a3b8" font-size="13" font-weight="700">MINIMUM ORDER QUANTITY (MOQ)</text>
          <rect x="0" y="105" width="400" height="40" rx="6" fill="#0f172a" stroke="#475569" stroke-width="1" />
          <text x="15" y="130" fill="#38bdf8" font-size="15" font-weight="700">20.000 KG (20 Ton)</text>

          <!-- Field 3 -->
          <text x="0" y="170" fill="#94a3b8" font-size="13" font-weight="700">SPESIFIKASI MUTU / GRADE</text>
          <rect x="0" y="180" width="400" height="40" rx="6" fill="#0f172a" stroke="#475569" stroke-width="1" />
          <text x="15" y="205" fill="#10b981" font-size="15" font-weight="700">Grade A (Standar Kelembapan &lt; 15%)</text>

          <!-- Field 4 -->
          <text x="0" y="245" fill="#94a3b8" font-size="13" font-weight="700">PENAWARAN HARGA BELI (BERBASIS BPS)</text>
          <rect x="0" y="255" width="400" height="40" rx="6" fill="#0f172a" stroke="#475569" stroke-width="1" />
          <text x="15" y="280" fill="#fbbf24" font-size="15" font-weight="700">Rp 1.400 / kg (Atas Harga Acuan Rp1.350)</text>

          <!-- Submit Button -->
          <rect x="0" y="330" width="400" height="48" rx="8" fill="#f59e0b" filter="url(#shadow)" />
          <text x="200" y="360" fill="#ffffff" font-size="16" font-weight="800" text-anchor="middle">PUBLIKASIKAN RFQ KE SISTEM POOLING</text>
        </g>
      </g>

      <!-- RIGHT COLUMN: MATCHED POOLS & ESCROW SECURITY -->
      <g transform="translate(500, 0)">
        
        <!-- CARD 1: LIVE MATCHING POOL RESULT -->
        <rect x="0" y="0" width="440" height="270" rx="16" fill="url(#card)" stroke="#334155" stroke-width="1.5" filter="url(#shadow)" />
        <rect x="0" y="0" width="440" height="50" rx="16" fill="#052e16" />
        <text x="22" y="32" fill="#a7f3d0" font-size="16" font-weight="700">Hasil Pencocokan Stok Kopdes (Algoritma A)</text>

        <g transform="translate(20, 70)">
          <!-- Kopdes 1 -->
          <rect x="0" y="0" width="400" height="85" rx="8" fill="#0f172a" stroke="#10b981" stroke-width="1" />
          <text x="15" y="28" fill="#ffffff" font-size="15" font-weight="700">Kopdes Sukamaju Raya (Lampung Selatan)</text>
          <text x="15" y="50" fill="#38bdf8" font-size="13" font-weight="600">Stok Tersedia: 12.500 KG (Grade A)</text>
          <text x="15" y="70" fill="#10b981" font-size="12">Siap Kirim (Jarak: 25 km dari Pabrik)</text>
          <rect x="295" y="27" width="90" height="32" rx="6" fill="#10b981" />
          <text x="340" y="48" fill="#ffffff" font-size="13" font-weight="700" text-anchor="middle">KONTRAK</text>

          <!-- Kopdes 2 -->
          <g transform="translate(0, 100)">
            <rect x="0" y="0" width="400" height="85" rx="8" fill="#0f172a" stroke="#3b82f6" stroke-width="1" />
            <text x="15" y="28" fill="#ffffff" font-size="15" font-weight="700">Kopdes Bakti Tani (Kab. Pesawaran)</text>
            <text x="15" y="50" fill="#38bdf8" font-size="13" font-weight="600">Stok Tersedia: 8.000 KG (Grade A)</text>
            <text x="15" y="70" fill="#fbbf24" font-size="12">Pooling Agregasi (Melengkapi MOQ)</text>
            <rect x="295" y="27" width="90" height="32" rx="6" fill="#3b82f6" />
            <text x="340" y="48" fill="#ffffff" font-size="13" font-weight="700" text-anchor="middle">POOLING</text>
          </g>
        </g>

        <!-- CARD 2: ESCROW SECURITY -->
        <g transform="translate(0, 300)">
          <rect x="0" y="0" width="440" height="210" rx="16" fill="url(#card)" stroke="#334155" stroke-width="1.5" filter="url(#shadow)" />
          <rect x="0" y="0" width="440" height="50" rx="16" fill="#1e3a8a" />
          <text x="22" y="32" fill="#dbeafe" font-size="16" font-weight="700">Jaminan Keamanan Transaksi &amp; Pembayaran</text>

          <g transform="translate(22, 75)" font-size="13.5" fill="#cbd5e1">
            <g transform="translate(0, 0)">
              <circle cx="6" cy="-4" r="4" fill="#38bdf8" />
              <text x="20" y="0"><tspan font-weight="700" fill="#ffffff">Escrow Bank Himbara:</tspan> Pembayaran ditahan di</text>
              <text x="20" y="22">rekening escrow hingga barang terverifikasi.</text>
            </g>
            <g transform="translate(0, 55)">
              <circle cx="6" cy="-4" r="4" fill="#38bdf8" />
              <text x="20" y="0"><tspan font-weight="700" fill="#ffffff">Verifikasi NIB &amp; Legalitas:</tspan> Terdaftar resmi.</text>
            </g>
            <g transform="translate(0, 110)">
              <circle cx="6" cy="-4" r="4" fill="#38bdf8" />
              <text x="20" y="0"><tspan font-weight="700" fill="#ffffff">Klausul Toleransi Mutu:</tspan> Perlindungan hukum</text>
              <text x="20" y="22">terhadap susut logistik dan akurasi grade.</text>
            </g>
          </g>
        </g>
      </g>
    </g>
  </g>

  <!-- CONCEPT PREVIEW NOTE -->
  <text x="500" y="665" fill="#64748b" font-size="13" font-weight="500" text-anchor="middle" font-family="system-ui, -apple-system, sans-serif">* Ilustrasi Pratinjau Konsep (Concept Preview) - Bukan Tampilan Antarmuka Final</text>
</svg>
